# xmcd
#
# Track frame offsets: 
#        182
#        13605
#        31465
#        47612
#        63185
#        80910
#        96707
#        113532
#        130585
#        147022
#        162902
#        178840
#        195355
#        211222
#        229722
#        246112
#        260012
#        274185
#        288867
#        305757
#        320495
#        334965
#
# Disc length: 4770 seconds
#
# Revision: 7
# Processed by: cddbd v1.5.2PL0 Copyright (c) Steve Scherf et al.
# Submitted via: ExactAudioCopy v1.0b1
#
DISCID=4012a016
DTITLE=Various Artist - Have A Nice Decade [Disc4]
DYEAR=1998
DGENRE=Pop
TTITLE0=The O'Jays - Love Train
TTITLE1=Gladys Knight and The Pips - Midnight Train To Georgia
TTITLE2=Vicki Lawrence - The Night The Lights Went Out In Georgia
TTITLE3=The Doobie Brothers - Long Train Runnin'
TTITLE4=Stories - Brother Louie
TTITLE5=Todd Rundgren - Hello It's Me
TTITLE6=Terry Jacks - Seasons In The Sun
TTITLE7=The Hollies - The Air That I Breathe
TTITLE8=Harry Chapin - Cat's In The Cradle
TTITLE9=Paper Lace - The Night Chicago Died
TTITLE10=Rufus - Tell Me Something Good
TTITLE11=Bo Donaldson and The Heywoods - Billy, Don't Be A Hero
TTITLE12=Styx - Lady
TTITLE13=James Brown - The Payback - Part 1
TTITLE14=Linda Ronstadt - You're No Good
TTITLE15=Marvin Hamlisch - The Entertainer
TTITLE16=The Hues Corporation - Rock The Boat
TTITLE17=Carl Douglas - Kung Fu Fighting
TTITLE18=Maria Muldaur - Midnight At The Oasis
TTITLE19=Ray Stevens - The Streak
TTITLE20=B.T. Express - Do It ('Til You're Satisfied)
TTITLE21=Golden Earring - Radar Love
EXTD=YEAR: 1998
EXTT0=
EXTT1=
EXTT2=
EXTT3=
EXTT4=
EXTT5=
EXTT6=
EXTT7=
EXTT8=
EXTT9=
EXTT10=
EXTT11=
EXTT12=
EXTT13=
EXTT14=
EXTT15=
EXTT16=
EXTT17=
EXTT18=
EXTT19=
EXTT20=
EXTT21=
PLAYORDER=
